<?xml version="1.0" encoding="utf-8"?>
<!-- Generator: Adobe Illustrator 16.0.0, SVG Export Plug-In . SVG Version: 6.00 Build 0)  -->
<!DOCTYPE svg PUBLIC "-//W3C//DTD SVG 1.1//EN" "http://www.w3.org/Graphics/SVG/1.1/DTD/svg11.dtd">
<svg version="1.1" id="Layer_1" xmlns="http://www.w3.org/2000/svg" xmlns:xlink="http://www.w3.org/1999/xlink" x="0px" y="0px"
	 width="535.39px" height="202.32px" viewBox="0 0 535.39 202.32" enable-background="new 0 0 535.39 202.32" xml:space="preserve">
<g id="Aid_Foundation">
	<g id="Aid_Foundation_1_">
		<path fill="#010101" d="M80.87,151.749h-4.06l-1.395,3.527h-0.772l4.02-10.035h0.444l3.938,10.035h-0.786L80.87,151.749z
			 M77.062,151.12h3.575l-1.36-3.603c-0.114-0.282-0.25-0.677-0.41-1.178c-0.123,0.438-0.257,0.834-0.403,1.189L77.062,151.12z"/>
		<path fill="#010101" d="M105.879,155.276v-9.994h0.697v9.994H105.879z"/>
		<path fill="#010101" d="M138.414,150.184c0,1.677-0.44,2.943-1.319,3.804c-0.879,0.859-2.171,1.289-3.876,1.289h-2.393v-9.994h2.7
			c1.595,0,2.809,0.417,3.64,1.251S138.414,148.584,138.414,150.184z M137.655,150.211c0-1.431-0.363-2.508-1.09-3.229
			c-0.727-0.725-1.794-1.084-3.203-1.084h-1.839v8.764h1.654C136.163,154.661,137.655,153.177,137.655,150.211z"/>
		<path fill="#010101" d="M187.885,155.276h-0.697v-9.994h5.476v0.643h-4.778v4.238h4.512v0.649h-4.512L187.885,155.276
			L187.885,155.276z"/>
		<path fill="#010101" d="M224.037,150.266c0,1.586-0.396,2.841-1.189,3.763c-0.793,0.924-1.887,1.385-3.281,1.385
			c-1.39,0-2.481-0.461-3.274-1.385c-0.793-0.922-1.189-2.182-1.189-3.776c0-1.591,0.4-2.843,1.2-3.757
			c0.8-0.913,1.893-1.37,3.278-1.37c1.395,0,2.486,0.459,3.274,1.378C223.643,147.421,224.037,148.675,224.037,150.266z
			 M215.861,150.266c0,1.431,0.319,2.537,0.957,3.317c0.638,0.781,1.554,1.172,2.748,1.172c1.203,0,2.123-0.388,2.758-1.16
			c0.635-0.774,0.954-1.887,0.954-3.329c0-1.44-0.318-2.544-0.954-3.312c-0.636-0.769-1.551-1.152-2.745-1.152
			c-1.189,0-2.106,0.39-2.751,1.162C216.183,147.738,215.861,148.839,215.861,150.266z"/>
		<path fill="#010101" d="M255.102,145.282v6.467c0,1.148-0.333,2.046-0.998,2.693c-0.665,0.646-1.593,0.971-2.782,0.971
			c-1.158,0-2.061-0.324-2.71-0.975c-0.649-0.648-0.974-1.557-0.974-2.717v-6.439h0.704v6.467c0,0.962,0.267,1.71,0.8,2.246
			c0.533,0.535,1.288,0.803,2.263,0.803c0.953,0,1.691-0.264,2.215-0.789s0.786-1.257,0.786-2.189v-6.535L255.102,145.282
			L255.102,145.282z"/>
		<path fill="#010101" d="M286.509,155.276h-0.704l-5.921-8.873h-0.055c0.055,1.058,0.082,1.854,0.082,2.393v6.48h-0.67v-9.994
			h0.696l5.913,8.859h0.041c-0.041-0.82-0.062-1.602-0.062-2.34v-6.521h0.676v9.994L286.509,155.276L286.509,155.276z"/>
		<path fill="#010101" d="M318.347,150.184c0,1.677-0.439,2.943-1.319,3.804c-0.879,0.859-2.171,1.289-3.876,1.289h-2.393v-9.994
			h2.699c1.596,0,2.81,0.417,3.641,1.251S318.347,148.584,318.347,150.184z M317.587,150.211c0-1.431-0.362-2.508-1.09-3.229
			c-0.728-0.725-1.793-1.084-3.203-1.084h-1.838v8.764h1.652C316.096,154.661,317.587,153.177,317.587,150.211z"/>
		<path fill="#010101" d="M346.876,151.749h-4.062l-1.396,3.527h-0.771l4.021-10.035h0.443l3.938,10.035h-0.785L346.876,151.749z
			 M343.069,151.12h3.575l-1.359-3.603c-0.115-0.282-0.25-0.677-0.41-1.178c-0.123,0.438-0.258,0.834-0.402,1.189L343.069,151.12z"
			/>
		<path fill="#010101" d="M374.49,155.276h-0.703v-9.338h-3.248v-0.656h7.198v0.656h-3.247V155.276L374.49,155.276z"/>
		<path fill="#010101" d="M400.64,155.276v-9.994h0.697v9.994H400.64z"/>
		<path fill="#010101" d="M433.99,150.266c0,1.586-0.396,2.841-1.189,3.763c-0.793,0.924-1.887,1.385-3.281,1.385
			c-1.391,0-2.479-0.461-3.271-1.385c-0.793-0.922-1.189-2.182-1.189-3.776c0-1.591,0.398-2.843,1.199-3.757
			c0.799-0.913,1.893-1.37,3.277-1.37c1.395,0,2.484,0.459,3.271,1.378C433.593,147.421,433.99,148.675,433.99,150.266z
			 M425.812,150.266c0,1.431,0.32,2.537,0.957,3.317c0.639,0.781,1.555,1.172,2.748,1.172c1.203,0,2.123-0.388,2.76-1.16
			c0.637-0.774,0.953-1.887,0.953-3.329c0-1.44-0.316-2.544-0.953-3.312c-0.637-0.768-1.551-1.152-2.744-1.152
			c-1.189,0-2.107,0.39-2.752,1.162C426.134,147.738,425.812,148.839,425.812,150.266z"/>
		<path fill="#010101" d="M464.972,155.276h-0.705l-5.92-8.873h-0.055c0.055,1.058,0.082,1.854,0.082,2.393v6.48h-0.67v-9.994h0.697
			l5.91,8.859h0.041c-0.041-0.82-0.061-1.602-0.061-2.34v-6.521h0.676v9.994L464.972,155.276L464.972,155.276z"/>
	</g>
</g>
<g id="T">
	<path id="T_1_" fill="#010101" d="M442.109,126.887V58.58h-25.703V47.513h64.498V58.58h-25.705v68.309L442.109,126.887
		L442.109,126.887z"/>
</g>
<g id="S">
	<path id="S_1_" fill="#010101" d="M380.468,128.195c-3.969,0-7.459-0.219-10.473-0.655c-3.018-0.437-5.754-1.13-8.211-2.083
		c-2.459-0.951-4.998-2.101-7.615-3.45v-13.089c3.094,2.459,6.843,4.482,11.244,6.068c4.401,1.588,9.143,2.381,14.221,2.381
		c4.916,0,8.587-1.012,11.007-3.035c2.42-2.021,3.63-4.818,3.63-8.39c0-2.776-0.893-5.019-2.678-6.726
		c-1.785-1.703-4.145-3.152-7.08-4.344c-2.938-1.188-6.069-2.379-9.401-3.568c-2.54-0.952-5.04-1.965-7.497-3.034
		c-2.46-1.071-4.682-2.419-6.664-4.046c-1.984-1.625-3.57-3.707-4.762-6.248c-1.189-2.538-1.783-5.671-1.783-9.4
		c0-2.618,0.516-5.275,1.545-7.974c1.031-2.696,2.598-5.137,4.7-7.318c2.103-2.181,4.88-3.927,8.331-5.236
		c3.451-1.309,7.596-1.963,12.436-1.963c3.172,0,5.932,0.199,8.271,0.597c2.339,0.396,4.561,1.012,6.662,1.845
		c2.104,0.833,4.385,1.844,6.846,3.035v12.852c-1.984-1.268-3.988-2.458-6.012-3.569c-2.021-1.108-4.225-2.021-6.604-2.735
		s-5.039-1.11-7.975-1.19c-3.332-0.078-6.068,0.318-8.21,1.19c-2.144,0.874-3.771,2.103-4.879,3.688
		c-1.11,1.588-1.667,3.412-1.667,5.477c0,2.776,0.693,4.979,2.083,6.604c1.386,1.627,3.351,2.977,5.892,4.046
		c2.535,1.071,5.473,2.123,8.805,3.153c2.935,0.952,5.791,2.023,8.568,3.213c2.774,1.19,5.234,2.639,7.377,4.343
		c2.143,1.707,3.869,3.829,5.178,6.367c1.311,2.54,1.963,5.672,1.963,9.401c0,4.126-0.934,7.993-2.797,11.603
		c-1.865,3.611-4.799,6.545-8.805,8.809C392.11,127.064,386.894,128.195,380.468,128.195z"/>
</g>
<g id="I">
	<path id="I_1_" fill="#010101" d="M324.181,126.887V47.513h13.208v79.374H324.181z"/>
</g>
<g id="X">
	<g id="X_1_">
		<path fill="#010101" d="M279.914,91.9l-23.084,34.987h-14.994l29.75-43.556L279.914,91.9z M312.996,126.887H296.93l-54.978-79.374
			h16.064L312.996,126.887z M276.582,79.048l20.826-31.533h14.994l-28.322,41.77L276.582,79.048z"/>
	</g>
</g>
<g id="E">
	<rect id="Bottom" x="181.025" y="118.701" fill="#EE9B34" width="50.099" height="8.188"/>
	<path id="Mid" fill="#EE9B34" d="M181.025,83v8.312c0.107-0.001,50.12-0.006,50.12-0.006v-8.33
		C231.145,82.975,183.775,83,181.025,83z"/>
	<path id="Top" fill="#EE9B34" d="M181.025,47.513v8.104c2.146-0.03,50.099-0.014,50.099-0.014v-8.092L181.025,47.513
		L181.025,47.513z"/>
</g>
<g id="W">
	<path id="W_1_" fill="#010101" d="M80.115,126.887L56.077,47.513h14.161l18.921,67.592h-2.737l19.993-67.592h11.305l20.467,68.543
		h-3.332l18.921-68.543h14.161l-24.157,79.374h-13.09L110.46,62.15h3.213l-20.349,64.737H80.115z"/>
</g>
</svg>
